<?xml version="1.0" encoding="UTF-8" standalone="no"?>
<!-- Created with Inkscape (http://www.inkscape.org/) -->

<svg
   width="120"
   height="120"
   viewBox="0 0 120 120"
   version="1.1"
   id="svg1"
   xml:space="preserve"
   inkscape:version="1.3 (0e150ed6c4, 2023-07-21)"
   sodipodi:docname="settings.svg"
   xmlns:inkscape="http://www.inkscape.org/namespaces/inkscape"
   xmlns:sodipodi="http://sodipodi.sourceforge.net/DTD/sodipodi-0.dtd"
   xmlns="http://www.w3.org/2000/svg"
   xmlns:svg="http://www.w3.org/2000/svg"><sodipodi:namedview
     id="namedview1"
     pagecolor="#ffffff"
     bordercolor="#000000"
     borderopacity="0.25"
     inkscape:showpageshadow="2"
     inkscape:pageopacity="0.0"
     inkscape:pagecheckerboard="0"
     inkscape:deskcolor="#d1d1d1"
     inkscape:document-units="px"
     inkscape:zoom="6.9689822"
     inkscape:cx="79.208123"
     inkscape:cy="61.343247"
     inkscape:window-width="2400"
     inkscape:window-height="1261"
     inkscape:window-x="-9"
     inkscape:window-y="-9"
     inkscape:window-maximized="1"
     inkscape:current-layer="svg1" /><defs
     id="defs1"><inkscape:path-effect
       effect="fillet_chamfer"
       id="path-effect6"
       is_visible="true"
       lpeversion="1"
       nodesatellites_param="F,0,0,1,0,1.5608377,0,1 @ F,0,0,1,0,1.5608377,0,1 @ F,0,0,1,0,1.5608377,0,1 @ F,0,0,1,0,1.5608377,0,1"
       radius="0"
       unit="px"
       method="auto"
       mode="F"
       chamfer_steps="1"
       flexible="false"
       use_knot_distance="true"
       apply_no_radius="true"
       apply_with_radius="true"
       only_selected="false"
       hide_knots="false" /></defs><g
     id="g3"
     transform="translate(0.08116555,-0.10933755)"><circle
       style="display:inline;fill:none;stroke:currentColor;stroke-width:7.94771;stroke-linecap:round;stroke-linejoin:round;stroke-miterlimit:4.8;stroke-dasharray:none;paint-order:markers fill stroke"
       id="path1-2-0-1"
       cx="60"
       cy="60"
       r="19.447334" /><path
       style="fill:none;stroke:currentColor;stroke-width:6;stroke-linecap:round;stroke-linejoin:round;stroke-miterlimit:4.8;stroke-dasharray:none;stroke-opacity:1;paint-order:markers fill stroke"
       d="m 51.138558,21.073496 1.166891,-10.539452 15.27398,-0.07405 1.293058,10.863562 c 4.372966,0.880879 8.478375,2.635369 12.278027,5.045104 l 8.680104,-6.824431 10.623902,10.488387 -6.774104,8.724838 c 2.736487,4.28722 4.289018,8.3875 5.211891,12.388361 l 10.755853,1.288814 0.009,14.945441 -10.828424,1.313594 C 97.563108,73.027616 96.25828,77.1915 93.656144,81.143592 l 6.748176,8.752631 -10.502547,10.447287 -8.706654,-6.643932 c -3.504041,2.296001 -7.794451,3.871166 -12.442656,5.118351 l -1.310881,10.929851 -14.849683,0.0109 -1.368171,-10.921842 C 47.375275,97.657723 43.78181,96.665861 38.815819,93.542091 l -8.726906,6.834959 -10.445317,-10.590863 6.785643,-8.72182 C 23.50608,77.020974 22.301836,73.107024 21.271775,68.874321 l -10.976528,-1.43126 -0.11474,-14.85848 10.943615,-1.370819 c 1.433076,-5.663885 3.121834,-9.251236 5.122955,-12.453589 l -6.71614,-8.704047 10.632541,-10.548687 8.537597,6.734367 c 3.574779,-2.408028 7.914671,-3.897922 12.437483,-5.16831 z"
       id="path3"
       sodipodi:nodetypes="ccccccccccccccccccccccccccccccccc" /></g></svg>
